# Blender 4.3.2
# www.blender.org
mtllib pomni_hat_triangulated.mtl
o cube
v 0.376457 0.078125 0.379229
v 0.376457 0.078125 -0.370771
v 0.376457 0.000000 0.379229
v 0.376457 -0.000000 -0.370771
v -0.373543 0.078125 -0.370771
v -0.373543 0.078125 0.379229
v -0.373543 -0.000000 -0.370771
v -0.373543 0.000000 0.379229
vn -0.0000 -0.0000 -1.0000
vn 1.0000 -0.0000 -0.0000
vn -0.0000 -0.0000 1.0000
vn -1.0000 -0.0000 -0.0000
vn -0.0000 1.0000 -0.0000
vn -0.0000 -1.0000 -0.0000
vt 0.375000 0.796875
vt 0.187500 0.812500
vt 0.187500 0.796875
vt 0.375000 0.781250
vt 0.187500 0.781250
vt 0.000000 1.000000
vt 0.187500 1.000000
vt 0.000000 0.812500
vt 0.375000 0.812500
s 1
usemtl m_1b581b11-f216-0a31-051f-ae94e069797e
f 7/1/1 2/2/1 4/3/1
f 4/4/2 1/3/2 3/5/2
f 3/1/3 6/2/3 8/3/3
f 8/5/4 5/1/4 7/4/4
f 1/6/5 5/2/5 6/7/5
f 4/8/6 8/7/6 7/2/6
f 7/1/1 5/9/1 2/2/1
f 4/4/2 2/1/2 1/3/2
f 3/1/3 1/9/3 6/2/3
f 8/5/4 6/3/4 5/1/4
f 1/6/5 2/8/5 5/2/5
f 4/8/6 3/6/6 8/7/6
o cube.001
v 0.360832 0.343750 0.363604
v 0.360832 0.343750 -0.355146
v 0.360832 0.062500 0.363604
v 0.360832 0.062500 -0.355146
v -0.357918 0.343750 -0.355146
v -0.357918 0.343750 0.363604
v -0.357918 0.062500 -0.355146
v -0.357918 0.062500 0.363604
vn -0.0000 -0.0000 -1.0000
vn 1.0000 -0.0000 -0.0000
vn -0.0000 -0.0000 1.0000
vn -1.0000 -0.0000 -0.0000
vn -0.0000 1.0000 -0.0000
vt 0.562500 0.703125
vt 0.375000 0.781250
vt 0.375000 0.703125
vt 0.468750 0.546875
vt 0.281250 0.625000
vt 0.281250 0.546875
vt 0.562500 0.625000
vt 0.375000 0.625000
vt 0.468750 0.468750
vt 0.281250 0.468750
vt 0.187500 1.000000
vt 0.375000 0.812500
vt 0.375000 1.000000
vt 0.562500 0.781250
vt 0.468750 0.625000
vt 0.187500 0.812500
s 1
usemtl m_1b581b11-f216-0a31-051f-ae94e069797e
f 15/10/7 10/11/7 12/12/7
f 12/13/8 9/14/8 11/15/8
f 11/16/9 14/12/9 16/17/9
f 16/18/10 13/15/10 15/19/10
f 9/20/11 13/21/11 14/22/11
f 15/10/7 13/23/7 10/11/7
f 12/13/8 10/24/8 9/14/8
f 11/16/9 9/10/9 14/12/9
f 16/18/10 14/13/10 13/15/10
f 9/20/11 10/25/11 13/21/11
o cube.002
v 0.603401 0.484375 0.289765
v 0.400101 0.484375 -0.201046
v 0.603401 0.078125 0.289765
v 0.400101 0.078125 -0.201046
v 0.082517 0.484375 -0.069498
v 0.285818 0.484375 0.421313
v 0.082517 0.078125 -0.069498
v 0.285818 0.078125 0.421313
vn -0.3827 -0.0000 -0.9239
vn 0.9239 -0.0000 -0.3827
vn 0.3827 -0.0000 0.9239
vn -0.9239 -0.0000 0.3827
vn -0.0000 1.0000 -0.0000
vn -0.0000 -1.0000 -0.0000
vt 0.468750 0.375000
vt 0.562500 0.484375
vt 0.562500 0.375000
vt 0.140625 0.515625
vt 0.281250 0.625000
vt 0.281250 0.515625
vt 0.281250 0.359375
vt 0.375000 0.468750
vt 0.375000 0.359375
vt 0.375000 0.781250
vt 0.515625 0.890625
vt 0.515625 0.781250
vt 0.093750 0.515625
vt 0.187500 0.375000
vt 0.093750 0.375000
vt 0.281250 0.375000
vt 0.187500 0.515625
vt 0.468750 0.484375
vt 0.140625 0.625000
vt 0.281250 0.468750
vt 0.375000 0.890625
s 1
usemtl m_1b581b11-f216-0a31-051f-ae94e069797e
f 23/26/12 18/27/12 20/28/12
f 20/29/13 17/30/13 19/31/13
f 19/32/14 22/33/14 24/34/14
f 24/35/15 21/36/15 23/37/15
f 22/38/16 18/39/16 21/40/16
f 20/41/17 24/42/17 23/39/17
f 23/26/12 21/43/12 18/27/12
f 20/29/13 18/44/13 17/30/13
f 19/32/14 17/45/14 22/33/14
f 24/35/15 22/46/15 21/36/15
f 22/38/16 17/42/16 18/39/16
f 20/41/17 19/31/17 24/42/17
o cube.003
v -0.287399 0.484375 0.421313
v -0.084099 0.484375 -0.069498
v -0.287399 0.078125 0.421313
v -0.084099 0.078125 -0.069498
v -0.401682 0.484375 -0.201046
v -0.604983 0.484375 0.289765
v -0.401682 0.078125 -0.201046
v -0.604983 0.078125 0.289765
vn 0.3827 -0.0000 -0.9239
vn 0.9239 -0.0000 0.3827
vn -0.3827 -0.0000 0.9239
vn -0.9239 -0.0000 -0.3827
vn -0.0000 1.0000 -0.0000
vn -0.0000 -1.0000 -0.0000
vt 0.562500 0.375000
vt 0.468750 0.484375
vt 0.468750 0.375000
vt 0.515625 0.781250
vt 0.375000 0.890625
vt 0.375000 0.781250
vt 0.375000 0.359375
vt 0.281250 0.468750
vt 0.281250 0.359375
vt 0.281250 0.515625
vt 0.140625 0.625000
vt 0.140625 0.515625
vt 0.093750 0.515625
vt 0.187500 0.375000
vt 0.187500 0.515625
vt 0.281250 0.375000
vt 0.562500 0.484375
vt 0.515625 0.890625
vt 0.375000 0.468750
vt 0.281250 0.625000
vt 0.093750 0.375000
s 1
usemtl m_1b581b11-f216-0a31-051f-ae94e069797e
f 31/47/18 26/48/18 28/49/18
f 28/50/19 25/51/19 27/52/19
f 27/53/20 30/54/20 32/55/20
f 32/56/21 29/57/21 31/58/21
f 25/59/22 29/60/22 30/61/22
f 31/62/23 27/61/23 32/56/23
f 31/47/18 29/63/18 26/48/18
f 28/50/19 26/64/19 25/51/19
f 27/53/20 25/65/20 30/54/20
f 32/56/21 30/66/21 29/57/21
f 25/59/22 26/67/22 29/60/22
f 31/62/23 28/60/23 27/61/23
o cube.004
v -0.571420 0.140625 0.433533
v -0.499667 0.140625 0.260306
v -0.571420 -0.046875 0.433533
v -0.499667 -0.046875 0.260306
v -0.672894 0.140625 0.188553
v -0.744648 0.140625 0.361780
v -0.672894 -0.046875 0.188553
v -0.744648 -0.046875 0.361780
vn 0.3827 -0.0000 -0.9239
vn 0.9239 -0.0000 0.3827
vn -0.3827 -0.0000 0.9239
vn -0.9239 -0.0000 -0.3827
vn -0.0000 1.0000 -0.0000
vn -0.0000 -1.0000 -0.0000
vt 0.375000 0.421875
vt 0.421875 0.468750
vt 0.421875 0.421875
vt 0.375000 0.375000
vt 0.421875 0.375000
vt 0.281250 0.625000
vt 0.328125 0.671875
vt 0.328125 0.625000
vt 0.468750 0.468750
vt 0.468750 0.421875
vt 0.375000 0.671875
vt 0.375000 0.468750
vt 0.281250 0.671875
vt 0.468750 0.375000
vt 0.375000 0.625000
s 1
usemtl m_1b581b11-f216-0a31-051f-ae94e069797e
f 39/68/24 34/69/24 36/70/24
f 36/71/25 33/70/25 35/72/25
f 35/73/26 38/74/26 40/75/26
f 40/70/27 37/76/27 39/77/27
f 33/77/28 37/72/28 38/70/28
f 39/75/29 35/78/29 40/74/29
f 39/68/24 37/79/24 34/69/24
f 36/71/25 34/68/25 33/70/25
f 35/73/26 33/80/26 38/74/26
f 40/70/27 38/69/27 37/76/27
f 33/77/28 34/81/28 37/72/28
f 39/75/29 36/82/29 35/78/29
o cube.005
v 0.750333 0.140625 0.361780
v 0.678580 0.140625 0.188553
v 0.750333 -0.046875 0.361780
v 0.678580 -0.046875 0.188553
v 0.505352 0.140625 0.260306
v 0.577106 0.140625 0.433533
v 0.505352 -0.046875 0.260306
v 0.577106 -0.046875 0.433533
vn -0.3827 -0.0000 -0.9239
vn 0.9239 -0.0000 -0.3827
vn 0.3827 -0.0000 0.9239
vn -0.9239 -0.0000 0.3827
vn -0.0000 1.0000 -0.0000
vn -0.0000 -1.0000 -0.0000
vt 0.421875 0.421875
vt 0.375000 0.468750
vt 0.375000 0.421875
vt 0.468750 0.421875
vt 0.421875 0.468750
vt 0.328125 0.625000
vt 0.281250 0.671875
vt 0.281250 0.625000
vt 0.421875 0.375000
vt 0.375000 0.375000
vt 0.468750 0.375000
vt 0.375000 0.671875
vt 0.375000 0.625000
vt 0.468750 0.468750
vt 0.328125 0.671875
s 1
usemtl m_1b581b11-f216-0a31-051f-ae94e069797e
f 47/83/30 42/84/30 44/85/30
f 44/86/31 41/87/31 43/83/31
f 43/88/32 46/89/32 48/90/32
f 48/91/33 45/85/33 47/92/33
f 46/86/34 42/91/34 45/93/34
f 44/88/35 48/94/35 47/95/35
f 47/83/30 45/87/30 42/84/30
f 44/86/31 42/96/31 41/87/31
f 43/88/32 41/97/32 46/89/32
f 48/91/33 46/83/33 45/85/33
f 46/86/34 41/83/34 42/91/34
f 44/88/35 43/97/35 48/94/35
